<svg width="201" height="52" viewBox="0 0 201 52" fill="none" xmlns="http://www.w3.org/2000/svg">
<rect width="201" height="52" rx="4" fill="url(#paint0_linear_2234_8899)"/>
<path d="M48.8078 20.432V22.144H43.6798V25.352H47.7198V27.008H43.6798V30.28H48.8078V32H41.5118V20.432H48.8078ZM53 27.768L50.304 23.792H52.208C52.352 23.792 52.4587 23.8133 52.528 23.856C52.5973 23.8933 52.6587 23.9573 52.712 24.048L54.432 26.792C54.4587 26.7013 54.4907 26.6107 54.528 26.52C54.5707 26.4293 54.6213 26.3387 54.68 26.248L56.064 24.088C56.128 23.9867 56.1947 23.912 56.264 23.864C56.3333 23.816 56.4187 23.792 56.52 23.792H58.336L55.632 27.68L58.448 32H56.544C56.4 32 56.2827 31.9627 56.192 31.888C56.1067 31.8133 56.0347 31.728 55.976 31.632L54.232 28.776C54.184 28.968 54.1173 29.128 54.032 29.256L52.496 31.632C52.4373 31.7227 52.3653 31.808 52.28 31.888C52.1947 31.9627 52.088 32 51.96 32H50.192L53 27.768ZM60.1966 34.68V23.792H61.4046C61.5326 23.792 61.642 23.8213 61.7326 23.88C61.8233 23.9387 61.882 24.0293 61.9086 24.152L62.0686 24.912C62.3993 24.5333 62.778 24.2267 63.2046 23.992C63.6366 23.7573 64.1406 23.64 64.7166 23.64C65.1646 23.64 65.5726 23.7333 65.9406 23.92C66.314 24.1067 66.634 24.3787 66.9006 24.736C67.1726 25.088 67.3806 25.5253 67.5246 26.048C67.674 26.5653 67.7486 27.16 67.7486 27.832C67.7486 28.4453 67.666 29.0133 67.5006 29.536C67.3353 30.0587 67.098 30.512 66.7886 30.896C66.4846 31.28 66.114 31.5813 65.6766 31.8C65.2446 32.0133 64.7593 32.12 64.2206 32.12C63.7566 32.12 63.362 32.0507 63.0366 31.912C62.7166 31.768 62.4286 31.5707 62.1726 31.32V34.68H60.1966ZM64.0366 25.2C63.626 25.2 63.274 25.288 62.9806 25.464C62.6926 25.6347 62.4233 25.8773 62.1726 26.192V29.872C62.3966 30.1493 62.6393 30.344 62.9006 30.456C63.1673 30.5627 63.4526 30.616 63.7566 30.616C64.0553 30.616 64.3246 30.56 64.5646 30.448C64.81 30.336 65.0153 30.1653 65.1806 29.936C65.3513 29.7067 65.482 29.4187 65.5726 29.072C65.6633 28.72 65.7086 28.3067 65.7086 27.832C65.7086 27.352 65.6686 26.9467 65.5886 26.616C65.514 26.28 65.4046 26.008 65.2606 25.8C65.1166 25.592 64.9406 25.44 64.7326 25.344C64.53 25.248 64.298 25.2 64.0366 25.2ZM71.8475 20.112V32H69.8715V20.112H71.8475ZM78.0913 23.664C78.7046 23.664 79.2593 23.7627 79.7553 23.96C80.2566 24.1573 80.6833 24.4373 81.0353 24.8C81.3873 25.1627 81.6593 25.6053 81.8513 26.128C82.0433 26.6507 82.1393 27.2347 82.1393 27.88C82.1393 28.5307 82.0433 29.1173 81.8513 29.64C81.6593 30.1627 81.3873 30.608 81.0353 30.976C80.6833 31.344 80.2566 31.6267 79.7553 31.824C79.2593 32.0213 78.7046 32.12 78.0913 32.12C77.4779 32.12 76.9206 32.0213 76.4193 31.824C75.9179 31.6267 75.4886 31.344 75.1313 30.976C74.7793 30.608 74.5046 30.1627 74.3073 29.64C74.1153 29.1173 74.0193 28.5307 74.0193 27.88C74.0193 27.2347 74.1153 26.6507 74.3073 26.128C74.5046 25.6053 74.7793 25.1627 75.1313 24.8C75.4886 24.4373 75.9179 24.1573 76.4193 23.96C76.9206 23.7627 77.4779 23.664 78.0913 23.664ZM78.0913 30.6C78.7739 30.6 79.2779 30.3707 79.6033 29.912C79.9339 29.4533 80.0993 28.7813 80.0993 27.896C80.0993 27.0107 79.9339 26.336 79.6033 25.872C79.2779 25.408 78.7739 25.176 78.0913 25.176C77.3979 25.176 76.8859 25.4107 76.5553 25.88C76.2246 26.344 76.0593 27.016 76.0593 27.896C76.0593 28.776 76.2246 29.448 76.5553 29.912C76.8859 30.3707 77.3979 30.6 78.0913 30.6ZM84.181 32V23.792H85.341C85.5437 23.792 85.685 23.8293 85.765 23.904C85.845 23.9787 85.8983 24.1067 85.925 24.288L86.045 25.28C86.3383 24.7733 86.6823 24.3733 87.077 24.08C87.4717 23.7867 87.9143 23.64 88.405 23.64C88.8103 23.64 89.1463 23.7333 89.413 23.92L89.157 25.4C89.141 25.496 89.1063 25.5653 89.053 25.608C88.9997 25.6453 88.9277 25.664 88.837 25.664C88.757 25.664 88.6477 25.6453 88.509 25.608C88.3703 25.5707 88.1863 25.552 87.957 25.552C87.5463 25.552 87.1943 25.6667 86.901 25.896C86.6077 26.12 86.3597 26.4507 86.157 26.888V32H84.181ZM94.6043 23.664C95.1216 23.664 95.5963 23.7467 96.0283 23.912C96.4656 24.0773 96.8416 24.32 97.1563 24.64C97.4709 24.9547 97.7163 25.344 97.8923 25.808C98.0683 26.2667 98.1562 26.792 98.1562 27.384C98.1562 27.5333 98.1483 27.6587 98.1323 27.76C98.1216 27.856 98.0976 27.9333 98.0603 27.992C98.0283 28.0453 97.9829 28.0853 97.9243 28.112C97.8656 28.1333 97.7909 28.144 97.7003 28.144H92.6283C92.6869 28.9867 92.9136 29.6053 93.3083 30C93.7029 30.3947 94.2256 30.592 94.8763 30.592C95.1963 30.592 95.4709 30.5547 95.7003 30.48C95.9349 30.4053 96.1376 30.3227 96.3083 30.232C96.4843 30.1413 96.6363 30.0587 96.7643 29.984C96.8976 29.9093 97.0256 29.872 97.1483 29.872C97.2283 29.872 97.2976 29.888 97.3563 29.92C97.4149 29.952 97.4656 29.9973 97.5083 30.056L98.0843 30.776C97.8656 31.032 97.6203 31.248 97.3483 31.424C97.0763 31.5947 96.7909 31.7333 96.4923 31.84C96.1989 31.9413 95.8976 32.0133 95.5883 32.056C95.2843 32.0987 94.9883 32.12 94.7003 32.12C94.1296 32.12 93.5989 32.0267 93.1083 31.84C92.6176 31.648 92.1909 31.368 91.8283 31C91.4656 30.6267 91.1803 30.168 90.9723 29.624C90.7643 29.0747 90.6603 28.44 90.6603 27.72C90.6603 27.16 90.7509 26.6347 90.9323 26.144C91.1136 25.648 91.3723 25.2187 91.7083 24.856C92.0496 24.488 92.4629 24.1973 92.9483 23.984C93.4389 23.7707 93.9909 23.664 94.6043 23.664ZM94.6443 25.08C94.0683 25.08 93.6176 25.2427 93.2923 25.568C92.9669 25.8933 92.7589 26.3547 92.6683 26.952H96.3803C96.3803 26.696 96.3456 26.456 96.2763 26.232C96.2069 26.0027 96.1003 25.8027 95.9563 25.632C95.8123 25.4613 95.6309 25.328 95.4123 25.232C95.1936 25.1307 94.9376 25.08 94.6443 25.08ZM109.621 25.528C109.562 25.6027 109.504 25.6613 109.445 25.704C109.392 25.7467 109.312 25.768 109.205 25.768C109.104 25.768 109.005 25.7387 108.909 25.68C108.813 25.616 108.698 25.5467 108.565 25.472C108.432 25.392 108.272 25.3227 108.085 25.264C107.904 25.2 107.677 25.168 107.405 25.168C107.058 25.168 106.754 25.232 106.493 25.36C106.232 25.4827 106.013 25.6613 105.837 25.896C105.666 26.1307 105.538 26.416 105.453 26.752C105.368 27.0827 105.325 27.4587 105.325 27.88C105.325 28.3173 105.37 28.7067 105.461 29.048C105.557 29.3893 105.693 29.6773 105.869 29.912C106.045 30.1413 106.258 30.3173 106.509 30.44C106.76 30.5573 107.042 30.616 107.357 30.616C107.672 30.616 107.925 30.5787 108.117 30.504C108.314 30.424 108.48 30.3387 108.613 30.248C108.746 30.152 108.861 30.0667 108.957 29.992C109.058 29.912 109.17 29.872 109.293 29.872C109.453 29.872 109.573 29.9333 109.653 30.056L110.221 30.776C110.002 31.032 109.765 31.248 109.509 31.424C109.253 31.5947 108.986 31.7333 108.709 31.84C108.437 31.9413 108.154 32.0133 107.861 32.056C107.568 32.0987 107.277 32.12 106.989 32.12C106.482 32.12 106.005 32.0267 105.557 31.84C105.109 31.648 104.717 31.3707 104.381 31.008C104.05 30.6453 103.786 30.2027 103.589 29.68C103.397 29.152 103.301 28.552 103.301 27.88C103.301 27.2773 103.386 26.72 103.557 26.208C103.733 25.6907 103.989 25.2453 104.325 24.872C104.661 24.4933 105.077 24.1973 105.573 23.984C106.069 23.7707 106.64 23.664 107.285 23.664C107.898 23.664 108.434 23.7627 108.893 23.96C109.357 24.1573 109.773 24.44 110.141 24.808L109.621 25.528ZM115.482 23.664C116.095 23.664 116.65 23.7627 117.146 23.96C117.647 24.1573 118.074 24.4373 118.426 24.8C118.778 25.1627 119.05 25.6053 119.242 26.128C119.434 26.6507 119.53 27.2347 119.53 27.88C119.53 28.5307 119.434 29.1173 119.242 29.64C119.05 30.1627 118.778 30.608 118.426 30.976C118.074 31.344 117.647 31.6267 117.146 31.824C116.65 32.0213 116.095 32.12 115.482 32.12C114.869 32.12 114.311 32.0213 113.81 31.824C113.309 31.6267 112.879 31.344 112.522 30.976C112.17 30.608 111.895 30.1627 111.698 29.64C111.506 29.1173 111.41 28.5307 111.41 27.88C111.41 27.2347 111.506 26.6507 111.698 26.128C111.895 25.6053 112.17 25.1627 112.522 24.8C112.879 24.4373 113.309 24.1573 113.81 23.96C114.311 23.7627 114.869 23.664 115.482 23.664ZM115.482 30.6C116.165 30.6 116.669 30.3707 116.994 29.912C117.325 29.4533 117.49 28.7813 117.49 27.896C117.49 27.0107 117.325 26.336 116.994 25.872C116.669 25.408 116.165 25.176 115.482 25.176C114.789 25.176 114.277 25.4107 113.946 25.88C113.615 26.344 113.45 27.016 113.45 27.896C113.45 28.776 113.615 29.448 113.946 29.912C114.277 30.3707 114.789 30.6 115.482 30.6ZM123.38 23.792V29.008C123.38 29.5093 123.494 29.8987 123.724 30.176C123.958 30.448 124.308 30.584 124.772 30.584C125.113 30.584 125.433 30.5093 125.732 30.36C126.03 30.2053 126.313 29.9947 126.58 29.728V23.792H128.556V32H127.348C127.092 32 126.924 31.88 126.844 31.64L126.708 30.984C126.537 31.1547 126.361 31.312 126.18 31.456C125.998 31.5947 125.804 31.7147 125.596 31.816C125.393 31.912 125.172 31.9867 124.932 32.04C124.697 32.0987 124.444 32.128 124.172 32.128C123.724 32.128 123.326 32.0533 122.98 31.904C122.638 31.7493 122.35 31.5333 122.116 31.256C121.881 30.9787 121.702 30.6507 121.58 30.272C121.462 29.888 121.404 29.4667 121.404 29.008V23.792H123.38ZM131.165 32V23.792H132.325C132.528 23.792 132.669 23.8293 132.749 23.904C132.829 23.9787 132.883 24.1067 132.909 24.288L133.029 25.28C133.323 24.7733 133.667 24.3733 134.061 24.08C134.456 23.7867 134.899 23.64 135.389 23.64C135.795 23.64 136.131 23.7333 136.397 23.92L136.141 25.4C136.125 25.496 136.091 25.5653 136.037 25.608C135.984 25.6453 135.912 25.664 135.821 25.664C135.741 25.664 135.632 25.6453 135.493 25.608C135.355 25.5707 135.171 25.552 134.941 25.552C134.531 25.552 134.179 25.6667 133.885 25.896C133.592 26.12 133.344 26.4507 133.141 26.888V32H131.165ZM143.069 25.392C143.015 25.4773 142.959 25.5387 142.901 25.576C142.842 25.608 142.767 25.624 142.677 25.624C142.581 25.624 142.477 25.5973 142.365 25.544C142.258 25.4907 142.133 25.432 141.989 25.368C141.845 25.2987 141.679 25.2373 141.493 25.184C141.311 25.1307 141.095 25.104 140.845 25.104C140.455 25.104 140.149 25.1867 139.925 25.352C139.701 25.5173 139.589 25.7333 139.589 26C139.589 26.176 139.645 26.3253 139.757 26.448C139.874 26.5653 140.026 26.6693 140.213 26.76C140.405 26.8507 140.621 26.9333 140.861 27.008C141.101 27.0773 141.346 27.1547 141.597 27.24C141.847 27.3253 142.093 27.424 142.333 27.536C142.573 27.6427 142.786 27.7813 142.973 27.952C143.165 28.1173 143.317 28.3173 143.429 28.552C143.546 28.7867 143.605 29.0693 143.605 29.4C143.605 29.7947 143.533 30.16 143.389 30.496C143.245 30.8267 143.034 31.1147 142.757 31.36C142.479 31.6 142.135 31.7893 141.725 31.928C141.319 32.0613 140.853 32.128 140.325 32.128C140.042 32.128 139.765 32.1013 139.493 32.048C139.226 32 138.967 31.9307 138.717 31.84C138.471 31.7493 138.242 31.6427 138.029 31.52C137.821 31.3973 137.637 31.264 137.477 31.12L137.933 30.368C137.991 30.2773 138.061 30.208 138.141 30.16C138.221 30.112 138.322 30.088 138.445 30.088C138.567 30.088 138.682 30.1227 138.789 30.192C138.901 30.2613 139.029 30.336 139.173 30.416C139.317 30.496 139.485 30.5707 139.677 30.64C139.874 30.7093 140.122 30.744 140.421 30.744C140.655 30.744 140.855 30.7173 141.021 30.664C141.191 30.6053 141.33 30.5307 141.437 30.44C141.549 30.3493 141.629 30.2453 141.677 30.128C141.73 30.0053 141.757 29.88 141.757 29.752C141.757 29.56 141.698 29.4027 141.581 29.28C141.469 29.1573 141.317 29.0507 141.125 28.96C140.938 28.8693 140.722 28.7893 140.477 28.72C140.237 28.6453 139.989 28.5653 139.733 28.48C139.482 28.3947 139.234 28.296 138.989 28.184C138.749 28.0667 138.533 27.92 138.341 27.744C138.154 27.568 138.002 27.352 137.885 27.096C137.773 26.84 137.717 26.5307 137.717 26.168C137.717 25.832 137.783 25.512 137.917 25.208C138.05 24.904 138.245 24.64 138.501 24.416C138.762 24.1867 139.085 24.0053 139.469 23.872C139.858 23.7333 140.306 23.664 140.813 23.664C141.378 23.664 141.893 23.7573 142.357 23.944C142.821 24.1307 143.207 24.376 143.517 24.68L143.069 25.392ZM149.073 23.664C149.59 23.664 150.065 23.7467 150.497 23.912C150.934 24.0773 151.31 24.32 151.625 24.64C151.94 24.9547 152.185 25.344 152.361 25.808C152.537 26.2667 152.625 26.792 152.625 27.384C152.625 27.5333 152.617 27.6587 152.601 27.76C152.59 27.856 152.566 27.9333 152.529 27.992C152.497 28.0453 152.452 28.0853 152.393 28.112C152.334 28.1333 152.26 28.144 152.169 28.144H147.097C147.156 28.9867 147.382 29.6053 147.777 30C148.172 30.3947 148.694 30.592 149.345 30.592C149.665 30.592 149.94 30.5547 150.169 30.48C150.404 30.4053 150.606 30.3227 150.777 30.232C150.953 30.1413 151.105 30.0587 151.233 29.984C151.366 29.9093 151.494 29.872 151.617 29.872C151.697 29.872 151.766 29.888 151.825 29.92C151.884 29.952 151.934 29.9973 151.977 30.056L152.553 30.776C152.334 31.032 152.089 31.248 151.817 31.424C151.545 31.5947 151.26 31.7333 150.961 31.84C150.668 31.9413 150.366 32.0133 150.057 32.056C149.753 32.0987 149.457 32.12 149.169 32.12C148.598 32.12 148.068 32.0267 147.577 31.84C147.086 31.648 146.66 31.368 146.297 31C145.934 30.6267 145.649 30.168 145.441 29.624C145.233 29.0747 145.129 28.44 145.129 27.72C145.129 27.16 145.22 26.6347 145.401 26.144C145.582 25.648 145.841 25.2187 146.177 24.856C146.518 24.488 146.932 24.1973 147.417 23.984C147.908 23.7707 148.46 23.664 149.073 23.664ZM149.113 25.08C148.537 25.08 148.086 25.2427 147.761 25.568C147.436 25.8933 147.228 26.3547 147.137 26.952H150.849C150.849 26.696 150.814 26.456 150.745 26.232C150.676 26.0027 150.569 25.8027 150.425 25.632C150.281 25.4613 150.1 25.328 149.881 25.232C149.662 25.1307 149.406 25.08 149.113 25.08ZM159.6 25.392C159.547 25.4773 159.491 25.5387 159.432 25.576C159.373 25.608 159.299 25.624 159.208 25.624C159.112 25.624 159.008 25.5973 158.896 25.544C158.789 25.4907 158.664 25.432 158.52 25.368C158.376 25.2987 158.211 25.2373 158.024 25.184C157.843 25.1307 157.627 25.104 157.376 25.104C156.987 25.104 156.68 25.1867 156.456 25.352C156.232 25.5173 156.12 25.7333 156.12 26C156.12 26.176 156.176 26.3253 156.288 26.448C156.405 26.5653 156.557 26.6693 156.744 26.76C156.936 26.8507 157.152 26.9333 157.392 27.008C157.632 27.0773 157.877 27.1547 158.128 27.24C158.379 27.3253 158.624 27.424 158.864 27.536C159.104 27.6427 159.317 27.7813 159.504 27.952C159.696 28.1173 159.848 28.3173 159.96 28.552C160.077 28.7867 160.136 29.0693 160.136 29.4C160.136 29.7947 160.064 30.16 159.92 30.496C159.776 30.8267 159.565 31.1147 159.288 31.36C159.011 31.6 158.667 31.7893 158.256 31.928C157.851 32.0613 157.384 32.128 156.856 32.128C156.573 32.128 156.296 32.1013 156.024 32.048C155.757 32 155.499 31.9307 155.248 31.84C155.003 31.7493 154.773 31.6427 154.56 31.52C154.352 31.3973 154.168 31.264 154.008 31.12L154.464 30.368C154.523 30.2773 154.592 30.208 154.672 30.16C154.752 30.112 154.853 30.088 154.976 30.088C155.099 30.088 155.213 30.1227 155.32 30.192C155.432 30.2613 155.56 30.336 155.704 30.416C155.848 30.496 156.016 30.5707 156.208 30.64C156.405 30.7093 156.653 30.744 156.952 30.744C157.187 30.744 157.387 30.7173 157.552 30.664C157.723 30.6053 157.861 30.5307 157.968 30.44C158.08 30.3493 158.16 30.2453 158.208 30.128C158.261 30.0053 158.288 29.88 158.288 29.752C158.288 29.56 158.229 29.4027 158.112 29.28C158 29.1573 157.848 29.0507 157.656 28.96C157.469 28.8693 157.253 28.7893 157.008 28.72C156.768 28.6453 156.52 28.5653 156.264 28.48C156.013 28.3947 155.765 28.296 155.52 28.184C155.28 28.0667 155.064 27.92 154.872 27.744C154.685 27.568 154.533 27.352 154.416 27.096C154.304 26.84 154.248 26.5307 154.248 26.168C154.248 25.832 154.315 25.512 154.448 25.208C154.581 24.904 154.776 24.64 155.032 24.416C155.293 24.1867 155.616 24.0053 156 23.872C156.389 23.7333 156.837 23.664 157.344 23.664C157.909 23.664 158.424 23.7573 158.888 23.944C159.352 24.1307 159.739 24.376 160.048 24.68L159.6 25.392Z" fill="white"/>
<defs>
<linearGradient id="paint0_linear_2234_8899" x1="-7.48783e-06" y1="52" x2="43.0509" y2="-60.463" gradientUnits="userSpaceOnUse">
<stop stop-color="#FF3F3A"/>
<stop offset="1" stop-color="#F75E05"/>
</linearGradient>
</defs>
</svg>
